<svg xmlns="http://www.w3.org/2000/svg" fill="none" width="53" height="49"><path fill="#cceaff" d="M 49 11 l 0.2 31 H 18.9 L 9 49 v -7 H 4 V 8 h 31" /><path stroke="#1060e1" stroke-miterlimit="10" d="M 44.5 19 v -0.3 l -0.2 -0.1 l -18 -13 l -0.1 -0.1 H 0.5 v 33 h 4 V 46 l 0.8 -0.6 l 9.9 -6.9 h 29.3 V 19 Z" /><path fill="#fff" d="M 31 2 l 6 -1.5 l 7 2 V 38 H 14.9 L 5 45 v -7 H 1 V 6 h 25 l 5 -4 Z" /><path stroke="#1060e1" stroke-miterlimit="10" d="M 7 16.5 h 13 m -13 6 h 14 m -14 6 h 18" /><path fill="#ffb935" d="M 39 30 a 14 14 0 1 0 0 -28 a 14 14 0 0 0 0 28 Z" /><path stroke="#f48024" stroke-miterlimit="10" d="M 50.5 14 a 13.5 13.5 0 1 1 -27 0 a 13.5 13.5 0 0 1 27 0 Z" /><path stroke="#fff" stroke-miterlimit="10" d="M 32.5 21.5 v -8 h 9 v 8 h -9 Z m 2 -9.5 V 9.3 A 2.5 2.5 0 0 1 37 6.8 a 2.5 2.5 0 0 1 2.5 2.5 V 12 h -5 Z m 2 3 v 2 m 1 -2 v 2" /></svg>